<?xml version="1.0" encoding="UTF-8" standalone="yes"?>
<svg version="1.1" width="64" height="64" color-interpolation="linearRGB"
     xmlns:svg="http://www.w3.org/2000/svg" xmlns="http://www.w3.org/2000/svg">
 <g>
  <path style="fill:#000000"
        d="M32 14C22 14 14 22 14 32C14 42 22 50 32 50C42 50 50 42 50 32C50 22 42 14 32 14z"
        transform="matrix(2,0,0,1.5555,-32,-17.7777)"
  />
  <path style="fill:#ffffff"
        d="M18 12C10 15 12 6 7 9C14 16 17 17 19 21C20 23 20 24 19 25C18 26 8 27 4 28C0 29 0 25 0 23C0 16 9 19 8 20C7 21 6 20 6 21C6 22 13 22 11 18C10 16 2 16 1 12C1 12 0 7 2 6C8 3 18 2 18 2C18 2 13 7 18 12z"
        transform="matrix(1.0724,0,0,1.0225,11,16.694)"
  />
  <path style="fill:none; stroke:#ffffff; stroke-width:4; stroke-linecap:round; stroke-linejoin:round"
        d="M2 6V2H18V6
           M10 2V22
           M14 22H6"
        transform="matrix(1,0,0,1,32,20)"
  />
 </g>
</svg>
